<?xml version="1.0" standalone="no"?>
<!DOCTYPE svg PUBLIC "-//W3C//DTD SVG 20010904//EN"
 "http://www.w3.org/TR/2001/REC-SVG-20010904/DTD/svg10.dtd">
<svg version="1.0" xmlns="http://www.w3.org/2000/svg"
 width="640.000000pt" height="1280.000000pt" viewBox="0 0 640.000000 1280.000000"
 preserveAspectRatio="xMidYMid meet">
<metadata>
Created by potrace 1.15, written by Peter Selinger 2001-2017
</metadata>
<g transform="translate(0.000000,1280.000000) scale(0.100000,-0.100000)"
fill="#89cff0" stroke="none">
<path d="M3160 12791 c-256 -48 -446 -223 -585 -538 -23 -54 -80 -192 -125
-308 -206 -526 -351 -713 -664 -860 -53 -25 -140 -65 -193 -90 -128 -61 -221
-124 -317 -215 -97 -92 -147 -162 -224 -310 -75 -144 -120 -258 -170 -429
l-39 -134 -109 -1 c-107 -1 -112 -2 -189 -40 -56 -28 -102 -61 -161 -118 -77
-74 -86 -87 -128 -186 -77 -183 -100 -293 -115 -539 -18 -296 41 -589 147
-728 45 -60 114 -100 196 -114 32 -6 61 -12 63 -15 6 -5 -28 -135 -103 -396
-93 -321 -119 -433 -159 -688 -56 -365 -86 -630 -105 -927 -20 -326 -8 -1781
20 -2275 59 -1049 269 -2302 473 -2822 122 -310 213 -472 342 -607 156 -163
307 -243 550 -290 1120 -218 2153 -213 3165 15 302 68 331 75 416 110 227 91
385 221 493 404 93 157 122 231 191 483 95 349 115 477 170 1072 16 182 32
340 35 352 3 12 10 91 15 175 6 84 22 265 36 401 49 488 80 1776 55 2290 -36
723 -128 1450 -316 2487 -48 268 -48 266 -35 305 13 40 31 52 145 90 152 51
218 107 264 224 50 124 72 352 52 529 -13 117 -76 386 -128 542 -42 126 -120
291 -162 342 -41 48 -105 78 -167 78 -61 0 -110 28 -129 75 -8 18 -21 73 -29
122 -39 236 -128 401 -285 526 -86 68 -182 116 -296 148 -92 25 -399 148 -461
184 -72 42 -161 122 -222 199 -113 141 -170 282 -262 641 -112 437 -184 579
-353 699 -139 98 -253 135 -432 141 -66 2 -140 0 -165 -4z"/>
</g>
</svg>
